<?xml version="1.0" encoding="UTF-8" standalone="no"?>
<svg
   xmlns:dc="http://purl.org/dc/elements/1.1/"
   xmlns:cc="http://creativecommons.org/ns#"
   xmlns:rdf="http://www.w3.org/1999/02/22-rdf-syntax-ns#"
   xmlns:svg="http://www.w3.org/2000/svg"
   xmlns="http://www.w3.org/2000/svg"
   xmlns:sodipodi="http://sodipodi.sourceforge.net/DTD/sodipodi-0.dtd"
   xmlns:inkscape="http://www.inkscape.org/namespaces/inkscape"
   inkscape:version="1.0 (4035a4fb49, 2020-05-01)"
   sodipodi:docname="tract_seg.svg"
   xml:space="preserve"
   style="enable-background:new 0 0 463 463;"
   viewBox="0 0 463 463"
   y="0px"
   x="0px"
   id="Capa_1"
   version="1.1"><metadata
   id="metadata49"><rdf:RDF><cc:Work
       rdf:about=""><dc:format>image/svg+xml</dc:format><dc:type
         rdf:resource="http://purl.org/dc/dcmitype/StillImage" /></cc:Work></rdf:RDF></metadata><defs
   id="defs47" /><sodipodi:namedview
   inkscape:current-layer="Capa_1"
   inkscape:window-maximized="1"
   inkscape:window-y="-8"
   inkscape:window-x="-8"
   inkscape:cy="231.5"
   inkscape:cx="231.5"
   inkscape:zoom="2.1771058"
   showgrid="false"
   id="namedview45"
   inkscape:window-height="1377"
   inkscape:window-width="2560"
   inkscape:pageshadow="2"
   inkscape:pageopacity="0"
   guidetolerance="10"
   gridtolerance="10"
   objecttolerance="10"
   borderopacity="1"
   bordercolor="#666666"
   pagecolor="#ffffff" />
<g
   id="g12">
	<path
   id="path2"
   d="M151.245,222.446C148.054,237.039,135.036,248,119.5,248c-4.142,0-7.5,3.357-7.5,7.5s3.358,7.5,7.5,7.5   c23.774,0,43.522-17.557,46.966-40.386c14.556-1.574,27.993-8.06,38.395-18.677c2.899-2.959,2.85-7.708-0.109-10.606   c-2.958-2.897-7.707-2.851-10.606,0.108C184.947,202.829,172.643,208,159.5,208c-26.743,0-48.5-21.757-48.5-48.5   c0-4.143-3.358-7.5-7.5-7.5s-7.5,3.357-7.5,7.5C96,191.715,120.119,218.384,151.245,222.446z" />
	<path
   id="path4"
   d="M183,287.5c0-4.143-3.358-7.5-7.5-7.5c-35.014,0-63.5,28.486-63.5,63.5c0,0.362,0.013,0.725,0.019,1.088   C109.23,344.212,106.39,344,103.5,344c-4.142,0-7.5,3.357-7.5,7.5s3.358,7.5,7.5,7.5c26.743,0,48.5,21.757,48.5,48.5   c0,4.143,3.358,7.5,7.5,7.5s7.5-3.357,7.5-7.5c0-26.611-16.462-49.437-39.731-58.867c-0.178-1.699-0.269-3.418-0.269-5.133   c0-26.743,21.757-48.5,48.5-48.5C179.642,295,183,291.643,183,287.5z" />
	<path
   id="path6"
   d="M439,223.5c0-17.075-6.82-33.256-18.875-45.156c1.909-6.108,2.875-12.426,2.875-18.844   c0-30.874-22.152-56.659-51.394-62.329C373.841,91.6,375,85.628,375,79.5c0-19.557-11.883-36.387-28.806-43.661   C317.999,13.383,287.162,0,263.5,0c-13.153,0-24.817,6.468-32,16.384C224.317,6.468,212.653,0,199.5,0   c-23.662,0-54.499,13.383-82.694,35.839C99.883,43.113,88,59.943,88,79.5c0,6.128,1.159,12.1,3.394,17.671   C62.152,102.841,40,128.626,40,159.5c0,6.418,0.965,12.735,2.875,18.844C30.82,190.244,24,206.425,24,223.5   c0,13.348,4.149,25.741,11.213,35.975C27.872,270.087,24,282.466,24,295.5c0,23.088,12.587,44.242,32.516,55.396   C56.173,353.748,56,356.626,56,359.5c0,31.144,20.315,58.679,49.79,68.063C118.611,449.505,141.965,463,167.5,463   c27.995,0,52.269-16.181,64-39.674c11.731,23.493,36.005,39.674,64,39.674c25.535,0,48.889-13.495,61.71-35.437   c29.475-9.385,49.79-36.92,49.79-68.063c0-2.874-0.173-5.752-0.516-8.604C426.413,339.742,439,318.588,439,295.5   c0-13.034-3.872-25.413-11.213-36.025C434.851,249.241,439,236.848,439,223.5z M167.5,448c-21.029,0-40.191-11.594-50.009-30.256   c-0.973-1.849-2.671-3.208-4.688-3.751C88.19,407.369,71,384.961,71,359.5c0-3.81,0.384-7.626,1.141-11.344   c0.702-3.447-1.087-6.92-4.302-8.35C50.32,332.018,39,314.626,39,295.5c0-8.699,2.256-17.014,6.561-24.379   C56.757,280.992,71.436,287,87.5,287c4.142,0,7.5-3.357,7.5-7.5s-3.358-7.5-7.5-7.5C60.757,272,39,250.243,39,223.5   c0-14.396,6.352-27.964,17.428-37.221c2.5-2.09,3.365-5.555,2.14-8.574C56.2,171.869,55,165.744,55,159.5   c0-26.743,21.757-48.5,48.5-48.5s48.5,21.757,48.5,48.5c0,4.143,3.358,7.5,7.5,7.5s7.5-3.357,7.5-7.5   c0-33.642-26.302-61.243-59.421-63.355C104.577,91.127,103,85.421,103,79.5c0-13.369,8.116-24.875,19.678-29.859   c0.447-0.133,0.885-0.307,1.308-0.527C127.568,47.752,131.447,47,135.5,47c12.557,0,23.767,7.021,29.256,18.325   c1.81,3.727,6.298,5.281,10.023,3.47c3.726-1.809,5.28-6.296,3.47-10.022c-6.266-12.903-18.125-22.177-31.782-25.462   C165.609,21.631,184.454,15,199.5,15c13.509,0,24.5,10.99,24.5,24.5v97.051c-6.739-5.346-15.25-8.551-24.5-8.551   c-4.142,0-7.5,3.357-7.5,7.5s3.358,7.5,7.5,7.5c13.509,0,24.5,10.99,24.5,24.5v180.279c-9.325-12.031-22.471-21.111-37.935-25.266   c-3.999-1.071-8.114,1.297-9.189,5.297c-1.075,4.001,1.297,8.115,5.297,9.189C206.8,343.616,224,366.027,224,391.5   C224,422.654,198.654,448,167.5,448z M395.161,339.807c-3.215,1.43-5.004,4.902-4.302,8.35c0.757,3.718,1.141,7.534,1.141,11.344   c0,25.461-17.19,47.869-41.803,54.493c-2.017,0.543-3.716,1.902-4.688,3.751C335.691,436.406,316.529,448,295.5,448   c-31.154,0-56.5-25.346-56.5-56.5c0-2.109-0.098-4.2-0.281-6.271c0.178-0.641,0.281-1.314,0.281-2.012V135.5   c0-13.51,10.991-24.5,24.5-24.5c4.142,0,7.5-3.357,7.5-7.5s-3.358-7.5-7.5-7.5c-9.25,0-17.761,3.205-24.5,8.551V39.5   c0-13.51,10.991-24.5,24.5-24.5c15.046,0,33.891,6.631,53.033,18.311c-13.657,3.284-25.516,12.559-31.782,25.462   c-1.81,3.727-0.256,8.214,3.47,10.022c3.726,1.81,8.213,0.257,10.023-3.47C303.733,54.021,314.943,47,327.5,47   c4.053,0,7.933,0.752,11.514,2.114c0.422,0.22,0.86,0.393,1.305,0.526C351.883,54.624,360,66.13,360,79.5   c0,5.921-1.577,11.627-4.579,16.645C322.302,98.257,296,125.858,296,159.5c0,4.143,3.358,7.5,7.5,7.5s7.5-3.357,7.5-7.5   c0-26.743,21.757-48.5,48.5-48.5s48.5,21.757,48.5,48.5c0,6.244-1.2,12.369-3.567,18.205c-1.225,3.02-0.36,6.484,2.14,8.574   C417.648,195.536,424,209.104,424,223.5c0,26.743-21.757,48.5-48.5,48.5c-4.142,0-7.5,3.357-7.5,7.5s3.358,7.5,7.5,7.5   c16.064,0,30.743-6.008,41.939-15.879c4.306,7.365,6.561,15.68,6.561,24.379C424,314.626,412.68,332.018,395.161,339.807z" />
	<path
   id="path8"
   d="M359.5,240c-15.536,0-28.554-10.961-31.745-25.554C358.881,210.384,383,183.715,383,151.5c0-4.143-3.358-7.5-7.5-7.5   s-7.5,3.357-7.5,7.5c0,26.743-21.757,48.5-48.5,48.5c-13.143,0-25.447-5.171-34.646-14.561c-2.898-2.958-7.647-3.007-10.606-0.108   s-3.008,7.647-0.109,10.606c10.402,10.617,23.839,17.103,38.395,18.677C315.978,237.443,335.726,255,359.5,255   c4.142,0,7.5-3.357,7.5-7.5S363.642,240,359.5,240z" />
	<path
   id="path10"
   d="M335.5,328c-2.89,0-5.73,0.212-8.519,0.588c0.006-0.363,0.019-0.726,0.019-1.088c0-35.014-28.486-63.5-63.5-63.5   c-4.142,0-7.5,3.357-7.5,7.5s3.358,7.5,7.5,7.5c26.743,0,48.5,21.757,48.5,48.5c0,1.714-0.091,3.434-0.269,5.133   C288.462,342.063,272,364.889,272,391.5c0,4.143,3.358,7.5,7.5,7.5s7.5-3.357,7.5-7.5c0-26.743,21.757-48.5,48.5-48.5   c4.142,0,7.5-3.357,7.5-7.5S339.642,328,335.5,328z" />
</g>
<g
   id="g14">
</g>
<g
   id="g16">
</g>
<g
   id="g18">
</g>
<g
   id="g20">
</g>
<g
   id="g22">
</g>
<g
   id="g24">
</g>
<g
   id="g26">
</g>
<g
   id="g28">
</g>
<g
   id="g30">
</g>
<g
   id="g32">
</g>
<g
   id="g34">
</g>
<g
   id="g36">
</g>
<g
   id="g38">
</g>
<g
   id="g40">
</g>
<g
   id="g42">
</g>
<path
   id="path874"
   d="m 162.14187,462.47596 c -11.90862,-0.79326 -23.93133,-4.96003 -34.44941,-11.93932 -5.78446,-3.83829 -15.28886,-13.34217 -19.05278,-19.05175 -2.66425,-4.04147 -2.83262,-4.19738 -5.60755,-5.19257 C 74.018804,415.887 54.369426,385.98172 56.434239,355.37286 l 0.30414,-4.50858 -3.68045,-2.45911 C 37.349593,337.90958 27.515218,322.34866 24.783545,303.66663 c -0.707187,-4.83648 -0.344553,-16.02485 0.67164,-20.72219 1.558255,-7.20299 4.3666,-14.17029 8.377702,-20.78447 l 1.601682,-2.64112 -1.655424,-2.72512 c -4.471737,-7.36128 -7.45845,-15.53107 -8.82395,-24.13685 -0.88219,-5.55983 -0.611268,-16.55477 0.537821,-21.82652 2.344204,-10.75468 7.211886,-20.47624 14.442108,-28.84327 l 3.145085,-3.63959 -1.174237,-4.54305 c -1.058809,-4.09645 -1.178241,-5.44609 -1.214956,-13.72955 -0.04403,-9.93302 0.404562,-13.1988 2.78819,-20.29835 3.30708,-9.85002 8.040111,-17.36769 15.708641,-24.95069 8.992403,-8.8921 17.957176,-13.92281 30.311495,-17.009715 1.753424,-0.438118 1.961549,-0.621963 1.701098,-1.50266 -2.493365,-8.43117 -2.692956,-9.680857 -2.691224,-16.850191 0.0014,-5.749441 0.183298,-7.785221 0.945259,-10.578632 3.879619,-14.222951 12.362655,-25.074444 24.461855,-31.291598 1.64409,-0.844811 5.40967,-3.347235 8.36796,-5.560941 19.61623,-14.67897 40.7109,-25.1842644 59.14924,-29.4567486 7.17682,-1.66299358 11.03456,-2.14747839 17.24026,-2.16516651 11.91519,-0.0339616 21.13358,3.86826531 29.2695,12.39003711 l 3.56282,3.731801 3.32505,-3.50041 C 243.10188,4.3247264 252.34682,0.37606307 264.38114,0.41036448 285.90125,0.47170321 314.4918,12.322681 340.8154,32.092883 c 2.903,2.180288 6.62354,4.65537 8.26785,5.500181 12.12468,6.229384 20.57427,17.037918 24.46227,31.291598 0.76197,2.793411 0.94387,4.829191 0.94526,10.578632 0.002,7.169334 -0.19785,8.419021 -2.69122,16.850191 -0.26045,0.880697 -0.0523,1.064542 1.7011,1.50266 12.35432,3.086905 21.31909,8.117615 30.31149,17.009715 7.66853,7.583 12.40156,15.10067 15.70865,24.95069 2.38362,7.09955 2.83221,10.36533 2.78818,20.29835 -0.0367,8.28346 -0.15614,9.6331 -1.21495,13.72955 l -1.17424,4.54305 3.14509,3.63959 c 7.23022,8.36703 12.0979,18.08859 14.44211,28.84327 1.14908,5.27175 1.42,16.26669 0.53782,21.82652 -1.36551,8.60578 -4.35222,16.77557 -8.82395,24.13685 l -1.65543,2.72512 1.59998,2.64112 c 9.29834,15.34894 11.84619,32.4253 7.39441,49.55924 -3.82722,14.7302 -13.94921,28.57371 -27.0782,37.03395 l -3.22224,2.0764 0.30526,4.52594 c 1.67261,24.79878 -10.55647,49.1859 -31.75512,63.32576 -4.65365,3.10407 -10.18492,5.94097 -14.83523,7.60875 -2.76898,0.99307 -2.94307,1.15462 -5.81723,5.39857 -10.82207,15.97974 -28.31345,27.03766 -47.77361,30.2021 -5.04229,0.81995 -15.76062,0.93197 -20.45339,0.21382 -20.81013,-3.18478 -38.25911,-14.17781 -49.61388,-31.25728 -1.59555,-2.39997 -3.26685,-5.1387 -3.714,-6.08606 -0.44715,-0.94736 -0.92974,-1.71641 -1.07242,-1.70901 -0.14269,0.007 -1.14441,1.61808 -2.22607,3.57927 -5.92327,10.7397 -16.2858,21.00271 -27.38562,27.12261 -12.29619,6.77953 -25.49336,9.67333 -39.7762,8.72193 z m 16.38527,-15.34632 c 11.89366,-2.43251 22.12796,-8.18185 30.532,-17.152 6.57262,-7.01536 11.18255,-15.57677 13.60163,-25.2605 1.07155,-4.28949 1.22022,-5.81136 1.23901,-12.68291 0.0232,-8.49417 -0.42405,-11.68157 -2.56808,-18.30083 -2.69379,-8.31651 -7.71394,-16.32084 -14.22504,-22.68096 -6.64678,-6.49266 -12.40401,-10.01758 -21.56946,-13.20612 -5.85059,-2.03533 -6.58583,-2.49802 -7.82298,-4.92304 -1.81876,-3.56507 -0.40518,-7.68837 3.28037,-9.5686 2.42975,-1.23956 3.47935,-1.15839 9.02774,0.69823 6.00966,2.01095 13.61811,5.87809 18.75768,9.53395 4.01384,2.85511 10.66423,9.02771 13.69633,12.71234 l 1.67445,2.03481 v -92.08092 c 0,-80.068 -0.0892,-92.4235 -0.68397,-94.70688 -2.12448,-8.1564 -8.20599,-14.67903 -16.38949,-17.57827 -1.0937,-0.38747 -3.8156,-0.87426 -6.04868,-1.08174 -4.43361,-0.41195 -5.72962,-1.04913 -7.53783,-3.70593 -1.4032,-2.06175 -1.4032,-5.29681 0,-7.35855 2.41704,-3.55136 5.18047,-4.236 12.19878,-3.02223 5.45915,0.94412 10.61152,2.93661 14.99722,5.79962 l 3.46397,2.26131 -0.007,-50.172025 c -0.007,-55.254829 0.0914,-53.21967 -2.85908,-58.85646 -1.9706,-3.764787 -6.78172,-8.491483 -10.50463,-10.320299 -1.61455,-0.793121 -4.48577,-1.770433 -6.38049,-2.171805 -9.72671,-2.060478 -28.04762,2.161687 -44.21904,10.190546 -7.00228,3.476523 -13.66978,7.269909 -13.52763,7.696366 0.0734,0.220301 1.57315,0.857991 3.3327,1.417091 7.74108,2.459732 16.53632,8.347317 21.45493,14.362057 3.31227,4.050432 6.69143,9.550858 7.05363,11.481568 1.24455,6.634023 -6.271,11.424126 -11.29347,7.197997 -0.76921,-0.64724 -2.25864,-2.654309 -3.30987,-4.460147 -8.79909,-15.11548 -27.32265,-20.645365 -43.08729,-12.862953 -3.60783,1.781048 -5.04461,2.835747 -8.30628,6.097426 -6.50521,6.505214 -9.58284,13.966216 -9.60062,23.274532 -0.009,4.792275 1.13608,9.939489 3.08954,13.885843 l 1.27031,2.566256 5.40945,0.810838 c 13.40179,2.008832 25.60665,8.177979 35.25388,17.819629 11.74702,11.74024 18.43421,26.92641 18.54725,42.11962 0.0335,4.49872 -0.0783,5.28597 -0.90887,6.40218 -2.40512,3.23223 -5.98321,4.21467 -9.26058,2.54268 -3.03381,-1.54773 -3.85668,-3.38984 -4.30189,-9.63034 -1.2647,-17.72761 -11.11411,-32.51363 -26.82978,-40.27709 -10.71891,-5.29509 -22.19123,-6.55689 -33.51001,-3.68565 -26.771627,6.79118 -42.681089,34.44969 -34.88521,60.64773 0.676584,2.27366 1.439611,4.8657 1.695614,5.76009 0.928835,3.24504 0.183129,4.80867 -4.544065,9.52818 -4.859697,4.85181 -9.052617,10.84607 -11.207576,16.02251 -11.362285,27.29343 3.316036,58.10579 31.466129,66.05289 2.27366,0.64189 6.852703,1.44761 10.175656,1.79049 4.740118,0.48911 6.335943,0.83292 7.407407,1.59587 4.216084,3.00212 3.570465,10.02194 -1.12673,12.2509 -1.440017,0.68333 -2.530442,0.76876 -7.013756,0.54949 -2.919757,-0.14281 -6.84133,-0.58912 -8.714606,-0.99181 -8.713648,-1.87311 -18.045947,-6.08331 -24.839433,-11.20611 -2.145629,-1.61797 -4.124505,-3.02748 -4.397501,-3.13223 -0.272996,-0.10476 -1.246731,1.41956 -2.163856,3.38739 -5.688056,12.20454 -6.151441,26.77891 -1.241303,39.04139 4.401021,10.99103 12.826681,20.06789 23.713411,25.54617 5.162765,2.59794 6.636014,5.23292 5.702109,10.19854 -4.088744,21.7401 5.805694,45.03543 24.316558,57.25059 5.044612,3.3289 7.482812,4.52898 13.344642,6.56823 2.63929,0.91817 5.23509,1.95481 5.76844,2.30363 0.53335,0.34883 2.21885,2.66355 3.74554,5.14383 9.36947,15.22171 24.36213,25.02078 41.6766,27.23949 4.34642,0.55695 13.5917,0.19424 17.99291,-0.7059 z m 127.85836,0.0277 c 16.32961,-3.40011 29.87603,-13.00514 37.95732,-26.91347 1.14155,-1.96467 2.45937,-3.91948 2.9285,-4.34403 0.46913,-0.42456 3.34669,-1.66195 6.39459,-2.74976 9.27559,-3.31052 16.19597,-7.6899 22.44329,-14.20265 8.71721,-9.08758 13.67822,-19.21611 15.52109,-31.6883 0.80072,-5.41914 0.67403,-12.68267 -0.31274,-17.92937 -0.93391,-4.96562 0.53934,-7.60061 5.70211,-10.19855 10.97159,-5.52097 19.41606,-14.69353 23.87972,-25.93863 4.73073,-11.91791 4.19824,-26.62047 -1.39913,-38.63084 -0.91245,-1.95787 -1.79698,-3.55977 -1.96561,-3.55977 -0.16864,0 -1.53124,0.95408 -3.02802,2.12018 -8.65811,6.74534 -18.55925,11.07049 -29.34858,12.82047 -5.59738,0.90786 -10.9304,0.87932 -12.92926,-0.0692 -4.56806,-2.16769 -5.14357,-9.23185 -0.9929,-12.18739 1.07147,-0.76295 2.66729,-1.10676 7.40741,-1.59588 3.32296,-0.34285 7.902,-1.14857 10.17566,-1.79046 22.47553,-6.3451 37.35838,-28.03541 35.13202,-51.20147 -1.16111,-12.08173 -5.89671,-21.91175 -14.87347,-30.87393 -4.72719,-4.71951 -5.4729,-6.28314 -4.54407,-9.52818 0.25601,-0.89439 1.01904,-3.48643 1.69562,-5.76009 3.3475,-11.24926 2.39783,-23.29388 -2.6844,-34.0464 -2.71663,-5.74757 -5.26911,-9.39209 -9.63678,-13.75978 -5.97199,-5.97198 -12.8554,-10.07928 -20.70599,-12.35517 -17.13538,-4.96755 -35.47196,-0.30472 -48.04067,12.21633 -8.52697,8.49465 -13.28794,19.00609 -14.15868,31.26003 -0.44344,6.24058 -1.26582,8.08223 -4.30037,9.63034 -3.27737,1.67199 -6.85546,0.68955 -9.26058,-2.54268 -0.83058,-1.11621 -0.94234,-1.90346 -0.90887,-6.40218 0.16351,-21.97566 14.20183,-43.62622 35.03072,-54.02605 5.55152,-2.77187 12.57556,-4.984636 18.77041,-5.913199 l 5.40945,-0.810838 1.27031,-2.566256 c 2.93175,-5.922684 3.87579,-14.254764 2.41066,-21.276407 -0.36899,-1.768403 -1.63996,-5.178366 -2.82438,-7.577693 -1.78104,-3.607905 -2.83561,-5.044528 -6.09736,-8.306275 -3.26167,-3.261679 -4.69845,-4.316378 -8.30628,-6.097426 -13.19775,-6.515238 -28.39027,-3.88671 -38.38626,6.641386 -1.53434,1.616022 -3.64981,4.41573 -4.70103,6.221567 -2.13458,3.666878 -3.96328,5.442791 -6.08425,5.908634 -4.43125,0.973264 -8.70228,-2.606231 -8.70228,-7.293284 0,-2.968937 4.90472,-10.788276 9.78659,-15.602245 5.32001,-5.246014 12.11575,-9.410818 18.90516,-11.586117 1.75955,-0.563754 3.25927,-1.205253 3.3327,-1.425554 0.14215,-0.426457 -6.52535,-4.219843 -13.52763,-7.696366 -16.17142,-8.028859 -34.49233,-12.251024 -44.21904,-10.190546 -9.39861,1.990975 -16.91039,9.183229 -19.04373,18.233671 -0.5857,2.48474 -0.69474,8.252101 -0.70047,37.047778 -0.004,18.757701 0.0961,34.10491 0.22181,34.10491 0.12572,0 1.21088,-0.69951 2.41146,-1.55446 6.00512,-4.276368 13.24274,-6.652201 20.60191,-6.762825 3.88835,-0.05845 5.73633,0.749532 7.41643,3.242636 1.37749,2.044039 1.40913,5.509249 0.0701,7.675829 -1.17119,1.89502 -3.89556,3.36723 -6.25114,3.37802 -2.95717,0.0136 -8.03127,1.29531 -11.10687,2.80569 -3.72281,1.82821 -8.53375,6.55453 -10.50463,10.31986 -3.06143,5.84878 -2.84531,-4.72795 -2.86697,140.31114 -0.0133,88.85149 0.13574,132.72242 0.45853,134.99839 1.66548,11.7431 6.71209,22.38133 14.62305,30.82531 9.43685,10.07266 21.27385,16.17372 34.65782,17.86341 4.41774,0.55773 13.54805,0.21308 17.79799,-0.67183 z"
   style="fill:#00ff00;stroke:#00ff00;stroke-width:0.459325" /><path
   id="path876"
   d="m 156.2967,413.83517 c -3.07969,-1.56535 -3.8542,-3.28551 -4.29923,-9.54843 -0.81807,-11.5128 -5.07272,-21.50678 -12.785,-30.03139 -7.74454,-8.56028 -20.48439,-14.5257 -32.73086,-15.32619 -3.51094,-0.22949 -5.19383,-0.55873 -6.486199,-1.26895 -4.861882,-2.67183 -4.784948,-9.55973 0.139089,-12.45234 1.36423,-0.80142 2.26141,-0.92592 5.95812,-0.82683 2.39363,0.0642 4.69393,0.22517 5.11179,0.3578 0.65748,0.20867 0.80335,-0.3635 1.08368,-4.25059 1.19519,-16.57281 7.272,-30.12651 18.60549,-41.49763 11.25204,-11.2894 25.31801,-17.64686 41.15903,-18.60283 4.1774,-0.25209 4.7306,-0.1856 6.62497,0.7963 1.49747,0.77618 2.35171,1.63603 3.10045,3.12083 1.30646,2.59079 1.30133,3.95975 -0.0242,6.46642 -1.49927,2.83513 -4.06406,4.11556 -8.24374,4.11556 -9.95349,0 -21.62171,4.66562 -30.37666,12.14631 -6.52515,5.57544 -12.51632,15.43888 -14.80266,24.37006 -1.21548,4.74806 -2.03318,15.97479 -1.24065,17.03362 0.20498,0.27384 1.96771,1.26011 3.91717,2.1917 20.67553,9.88022 35.29589,32.28641 35.46001,54.34363 0.0335,4.49871 -0.0783,5.28597 -0.90887,6.40217 -2.41737,3.2487 -5.89417,4.17246 -9.26172,2.46078 z"
   style="fill:#00ff00;stroke:#00ff00;stroke-width:0.459325" /><path
   id="path878"
   d="m 116.12315,261.7989 c -5.21169,-2.75266 -5.06748,-9.92994 0.25515,-12.69831 0.72451,-0.37682 3.30821,-0.87312 5.74157,-1.10287 10.97929,-1.03663 19.98217,-6.53456 25.26695,-15.43016 1.73299,-2.91705 4.42486,-9.71355 4.0111,-10.12731 -0.0976,-0.0976 -2.06641,-0.56448 -4.37511,-1.03749 -22.3052,-4.56986 -40.36821,-20.65684 -47.539955,-42.33924 -2.981153,-9.01296 -4.000196,-20.13879 -2.126083,-23.21242 2.518393,-4.13028 7.801758,-4.72941 11.254878,-1.27629 1.71719,1.7172 1.76679,1.90696 2.51763,9.63402 0.58724,6.04324 1.80216,10.6204 4.173,15.72154 8.05116,17.32296 25.05322,28.14403 44.21988,28.14403 12.75068,0 23.56017,-4.19064 33.09279,-12.82949 3.45047,-3.12695 4.56855,-3.70622 7.15357,-3.70622 3.38492,0 6.92791,3.59637 6.92791,7.03229 0,2.67615 -1.66707,5.15532 -5.81149,8.64253 -9.30757,7.83163 -19.04209,12.50817 -30.12374,14.47169 l -4.45367,0.78913 -0.51591,2.48512 c -2.89291,13.9351 -12.38098,26.23775 -25.23805,32.72479 -8.58787,4.33301 -20.28653,6.30334 -24.43042,4.11466 z"
   style="fill:#00ff00;stroke:#00ff00;stroke-width:0.459325" /><path
   id="path880"
   d="m 353.91022,254.40098 c -12.61646,-1.60258 -24.38882,-8.38267 -31.92865,-18.38878 -4.29008,-5.69338 -7.33912,-12.32137 -8.71337,-18.94109 -0.42532,-2.04875 -0.73394,-2.60498 -1.53353,-2.76392 -0.55057,-0.10944 -2.34457,-0.43032 -3.98665,-0.71307 -7.65537,-1.31816 -16.68853,-5.06018 -23.83725,-9.87465 -4.0094,-2.70022 -9.91974,-8.10105 -10.86439,-9.92779 -1.58243,-3.06009 -0.35306,-7.31096 2.64094,-9.13172 3.55422,-2.16145 5.9465,-1.61212 10.3865,2.38502 6.50373,5.85503 13.42923,9.59152 21.63647,11.67346 16.5217,4.19108 34.13763,-0.71137 46.23627,-12.86738 4.37534,-4.3961 6.92631,-8.04303 9.63703,-13.77738 2.51818,-5.32704 3.83871,-10.45633 4.53083,-17.59887 0.58334,-6.02003 1.01899,-7.10059 3.65672,-9.06994 1.76672,-1.31904 5.69403,-1.31177 7.48312,0.0139 2.67451,1.98168 3.3638,3.61749 3.3638,7.98295 0,11.42156 -4.41259,24.39787 -11.87296,34.91543 -3.54409,4.99642 -10.95638,12.22841 -15.92569,15.53833 -7.13277,4.75093 -15.05446,8.04074 -23.12565,9.60389 l -4.21324,0.81598 0.29174,1.37797 c 1.08441,5.12208 4.88729,11.35466 9.63163,15.78534 5.43662,5.0772 12.17895,8.03103 19.62539,8.59792 6.49773,0.49467 9.0929,2.44047 9.41569,7.05966 0.22256,3.1849 -1.01573,5.27648 -4.02343,6.79592 -2.16491,1.09368 -3.34967,1.16451 -8.51132,0.50887 z"
   style="fill:#00ff00;stroke:#00ff00;stroke-width:0.459325" /><path
   id="path882"
   d="m 275.98958,397.70345 c -2.66418,-1.54487 -3.60962,-3.71671 -3.60962,-8.29194 0,-10.76725 4.28232,-23.78301 11.12511,-33.81382 1.32249,-1.93863 4.68279,-5.81086 7.46733,-8.60497 5.46097,-5.47971 10.85207,-9.37941 17.09893,-12.36865 l 3.76825,-1.80318 0.31553,-2.52537 c 0.43177,-3.45576 -0.51621,-11.58818 -1.91817,-16.45537 -2.37277,-8.23754 -7.01727,-15.78684 -13.4019,-21.7838 -8.51056,-7.99381 -18.53417,-12.29363 -30.71088,-13.17403 -4.64828,-0.33608 -5.33182,-0.50179 -6.85174,-1.66109 -4.47822,-3.4157 -3.65351,-10.00472 1.53977,-12.30195 1.78554,-0.78983 2.63561,-0.87176 6.24322,-0.60175 25.19927,1.88603 46.17229,17.1888 55.37836,40.40634 2.28429,5.76092 3.68721,12.23575 4.00039,18.4628 l 0.2798,5.56316 5.13347,-0.22654 c 4.26856,-0.18836 5.41965,-0.0907 6.83212,0.57954 5.18008,2.4581 5.25193,10.08989 0.11836,12.57343 -1.27535,0.61699 -3.6609,1.06779 -7.39464,1.39736 -6.79958,0.60019 -11.05223,1.74808 -16.99504,4.58737 -10.25913,4.9015 -18.05818,12.74774 -22.944,23.08281 -2.55408,5.40271 -3.88362,10.51739 -4.57155,17.58664 -0.61144,6.28318 -1.29316,7.89793 -3.9694,9.40206 -2.17407,1.2219 -4.79533,1.21091 -6.9337,-0.029 z"
   style="fill:#00ff00;stroke:#00ff00;stroke-width:0.459325" /></svg>
